<svg xmlns="http://www.w3.org/2000/svg" width="1200" height="700" viewBox="0 0 1200 700" fill="none">
  <defs>
    <radialGradient id="r1" cx="0" cy="0" r="1" gradientUnits="userSpaceOnUse" gradientTransform="translate(320 180) rotate(35) scale(680 420)">
      <stop stop-color="#7C5CFF" stop-opacity="0.55"/>
      <stop offset="1" stop-color="#7C5CFF" stop-opacity="0"/>
    </radialGradient>
    <radialGradient id="r2" cx="0" cy="0" r="1" gradientUnits="userSpaceOnUse" gradientTransform="translate(880 200) rotate(155) scale(640 380)">
      <stop stop-color="#34D399" stop-opacity="0.38"/>
      <stop offset="1" stop-color="#34D399" stop-opacity="0"/>
    </radialGradient>
    <linearGradient id="g" x1="140" y1="80" x2="1060" y2="620" gradientUnits="userSpaceOnUse">
      <stop stop-color="#0B0F19"/>
      <stop offset="1" stop-color="#141B2E"/>
    </linearGradient>
  </defs>

  <rect x="0" y="0" width="1200" height="700" rx="28" fill="url(#g)"/>
  <circle cx="320" cy="180" r="260" fill="url(#r1)"/>
  <circle cx="900" cy="210" r="260" fill="url(#r2)"/>

  <path d="M90 470c160-120 360-150 600-70 200 66 320 40 420-40v220H90V470Z" fill="rgba(255,255,255,0.06)"/>
  <path d="M90 510c170-130 390-170 640-90 190 60 290 40 380-22" stroke="rgba(255,255,255,0.18)" stroke-width="3" stroke-linecap="round"/>

  <g opacity="0.9">
    <rect x="120" y="120" width="420" height="210" rx="18" fill="rgba(255,255,255,0.06)" stroke="rgba(255,255,255,0.10)"/>
    <path d="M150 170h280" stroke="rgba(255,255,255,0.30)" stroke-width="10" stroke-linecap="round"/>
    <path d="M150 208h330" stroke="rgba(255,255,255,0.22)" stroke-width="10" stroke-linecap="round"/>
    <path d="M150 246h250" stroke="rgba(255,255,255,0.18)" stroke-width="10" stroke-linecap="round"/>
    <rect x="150" y="280" width="140" height="32" rx="16" fill="rgba(124,92,255,0.28)" stroke="rgba(255,255,255,0.12)"/>
  </g>

  <g opacity="0.85">
    <rect x="680" y="360" width="400" height="210" rx="18" fill="rgba(255,255,255,0.06)" stroke="rgba(255,255,255,0.10)"/>
    <path d="M710 410h250" stroke="rgba(255,255,255,0.26)" stroke-width="10" stroke-linecap="round"/>
    <path d="M710 448h320" stroke="rgba(255,255,255,0.20)" stroke-width="10" stroke-linecap="round"/>
    <path d="M710 486h220" stroke="rgba(255,255,255,0.16)" stroke-width="10" stroke-linecap="round"/>
    <rect x="710" y="518" width="170" height="32" rx="16" fill="rgba(52,211,153,0.20)" stroke="rgba(255,255,255,0.12)"/>
  </g>
</svg>
